<svg width="147" height="40" viewBox="0 0 147 40" fill="none" xmlns="http://www.w3.org/2000/svg">
<rect x="44.478" y="27.2255" width="2.15256" height="2.12968" fill="#673DE6"/>
<rect width="147" height="40" fill="#673DE6"/>
<path d="M6.04084 33.1016V17.5191L12.9833 24.2255V33.1016H6.04084ZM32.994 6H34.015V33.1016H27.0725V21.1484L20.0075 28.0127L12.9425 21.1484L6 14.4422V6H7.10264L20.0483 18.5054L32.994 6ZM36.151 33.1016L44.6045 19.6494L47.4633 24.2255L41.8684 33.1016H36.151ZM48.3616 13.6531L60.5723 33.1411H54.8549L53.6706 31.2475L45.503 18.1898L48.3616 13.6531ZM69.1052 28.3676L69.2278 28.486L74.0058 33.1016H63.4696V14.0082H68.3702V28.3676H69.1052ZM71.3513 28.3676H77.2321V33.1016H76.2519L71.3513 28.3676ZM95.3447 18.3476V18.387C95.4673 18.821 95.508 19.255 95.508 19.6888C95.508 20.9512 95.0997 22.1347 94.283 23.121C94.1604 23.2787 93.997 23.4366 93.8337 23.5943C92.7311 24.6595 91.3017 25.2512 89.7499 25.2512H83.6241L79.2953 21.0696V14.0871H89.7499C91.3017 14.0871 92.7311 14.6788 93.8337 15.7439C94.5688 16.454 95.0997 17.3614 95.3447 18.3476ZM90.1174 20.7146V20.6356C90.3625 20.3595 90.485 20.0044 90.485 19.6494C90.485 19.5311 90.485 19.4127 90.4441 19.2943C90.3625 19.0182 90.1992 18.742 89.9949 18.5448C89.6682 18.2292 89.2598 18.0715 88.8106 18.0715H84.1959V18.7026L86.8912 21.3063H88.8106C89.2598 21.3063 89.6682 21.1484 89.9949 20.8328C90.0358 20.7935 90.0766 20.754 90.1174 20.7146ZM79.2953 33.0621V23.1604L84.1959 27.8943V33.0621H79.2953ZM97.5519 33.1016V21.7007L102.453 26.4347V33.1016H97.5519ZM109.885 13.9687L114.785 14.0082V33.1016H109.885V25.9218H104.127L97.5519 19.5705V13.9687H102.453V17.598L106.169 21.1879H109.885V13.9687ZM116.846 33.1016L125.3 19.6494L128.159 24.2255L122.564 33.1016H116.846ZM129.057 13.6531L141.268 33.1411H135.55L134.366 31.2475L126.198 18.1898L129.057 13.6531Z" fill="white"/>
<path d="M49.9939 26.5034H47.8478V28.5544H49.9939V26.5034Z" fill="white"/>
<path d="M130.272 26.5034H128.126V28.5544H130.272V26.5034Z" fill="white"/>
</svg>
