<svg width="163" height="35" viewBox="0 0 163 35" fill="none" xmlns="http://www.w3.org/2000/svg">
<path d="M0.447488 34V14.6648L8.76895 22.9863V34H0.447488ZM32.7543 0.371518H33.9781V34H25.6566V19.1682L17.1883 27.6855L8.72 19.1682L0.398538 10.8468V0.371518H1.72018L17.2373 15.8886L32.7543 0.371518ZM36.5384 34L46.671 17.3081L50.0975 22.9863L43.3913 34H36.5384ZM51.1743 9.86777L65.8103 34.0489H58.9574L57.5378 31.6994L47.7479 15.497L51.1743 9.86777ZM76.0381 28.126L76.185 28.2729L81.9121 34H69.2831V10.3083H75.157V28.126H76.0381ZM78.7304 28.126H85.7791V34H84.6043L78.7304 28.126ZM107.49 15.6928V15.7417C107.636 16.2802 107.685 16.8186 107.685 17.3571C107.685 18.9235 107.196 20.392 106.217 21.6157C106.07 21.8115 105.874 22.0073 105.678 22.2031C104.357 23.5248 102.643 24.259 100.783 24.259H93.4409L88.2523 19.0703V10.4062H100.783C102.643 10.4062 104.357 11.1405 105.678 12.4621C106.559 13.3432 107.196 14.469 107.49 15.6928ZM101.224 18.6298V18.5319C101.518 18.1892 101.664 17.7487 101.664 17.3081C101.664 17.1613 101.664 17.0144 101.616 16.8676C101.518 16.5249 101.322 16.1823 101.077 15.9375C100.685 15.5459 100.196 15.3501 99.6575 15.3501H94.1262V16.1333L97.3569 19.364H99.6575C100.196 19.364 100.685 19.1682 101.077 18.7766C101.126 18.7277 101.175 18.6787 101.224 18.6298ZM88.2523 33.9511V21.6647L94.1262 27.5386V33.9511H88.2523ZM110.135 34V19.8535L116.009 25.7275V34H110.135ZM124.918 10.2594L130.792 10.3083V34H124.918V25.0911H118.016L110.135 17.2102V10.2594H116.009V14.7627L120.463 19.2172H124.918V10.2594ZM133.262 34L143.395 17.3081L146.821 22.9863L140.115 34H133.262ZM147.898 9.86777L162.534 34.0489H155.681L154.261 31.6994L144.471 15.497L147.898 9.86777Z" fill="white"/>
</svg>
