<svg width="14" height="14" viewBox="0 0 14 14" fill="none" xmlns="http://www.w3.org/2000/svg">
<path d="M7.00156 3.41138C5.01517 3.41138 3.41294 5.01361 3.41294 7C3.41294 8.98639 5.01517 10.5886 7.00156 10.5886C8.98795 10.5886 10.5902 8.98639 10.5902 7C10.5902 5.01361 8.98795 3.41138 7.00156 3.41138ZM7.00156 9.33307C5.7179 9.33307 4.66849 8.28678 4.66849 7C4.66849 5.71322 5.71478 4.66693 7.00156 4.66693C8.28834 4.66693 9.33463 5.71322 9.33463 7C9.33463 8.28678 8.28522 9.33307 7.00156 9.33307ZM11.574 3.26458C11.574 3.72995 11.1992 4.10162 10.737 4.10162C10.2716 4.10162 9.89994 3.72682 9.89994 3.26458C9.89994 2.80234 10.2747 2.42755 10.737 2.42755C11.1992 2.42755 11.574 2.80234 11.574 3.26458ZM13.9508 4.11411C13.8977 2.99286 13.6416 1.99966 12.8202 1.18137C12.0019 0.363075 11.0087 0.106968 9.88745 0.0507496C8.73185 -0.0148388 5.26815 -0.0148388 4.11255 0.0507496C2.99442 0.103845 2.00123 0.359952 1.17981 1.17825C0.358394 1.99654 0.10541 2.98974 0.0491913 4.11099C-0.0163971 5.26659 -0.0163971 8.73028 0.0491913 9.88589C0.102287 11.0071 0.358394 12.0003 1.17981 12.8186C2.00123 13.6369 2.9913 13.893 4.11255 13.9493C5.26815 14.0148 8.73185 14.0148 9.88745 13.9493C11.0087 13.8962 12.0019 13.64 12.8202 12.8186C13.6385 12.0003 13.8946 11.0071 13.9508 9.88589C14.0164 8.73028 14.0164 5.26971 13.9508 4.11411ZM12.4579 11.1258C12.2143 11.738 11.7427 12.2096 11.1274 12.4563C10.206 12.8218 8.01974 12.7374 7.00156 12.7374C5.98338 12.7374 3.79398 12.8186 2.87574 12.4563C2.26358 12.2127 1.79197 11.7411 1.54523 11.1258C1.17981 10.2045 1.26414 8.01818 1.26414 7C1.26414 5.98182 1.18293 3.79241 1.54523 2.87418C1.78885 2.26202 2.26046 1.7904 2.87574 1.54367C3.7971 1.17825 5.98338 1.26257 7.00156 1.26257C8.01974 1.26257 10.2091 1.18137 11.1274 1.54367C11.7395 1.78728 12.2112 2.25889 12.4579 2.87418C12.8233 3.79554 12.739 5.98182 12.739 7C12.739 8.01818 12.8233 10.2076 12.4579 11.1258Z" fill="#673DE6"/>
</svg>
