<svg width="20" height="20" viewBox="0 0 20 20" fill="none" xmlns="http://www.w3.org/2000/svg">
<path d="M3.33332 16.6667C2.87499 16.6667 2.48263 16.5035 2.15624 16.1771C1.82985 15.8507 1.66666 15.4583 1.66666 15V5C1.66666 4.54167 1.82985 4.14931 2.15624 3.82292C2.48263 3.49653 2.87499 3.33333 3.33332 3.33333H16.6667C17.125 3.33333 17.5174 3.49653 17.8437 3.82292C18.1701 4.14931 18.3333 4.54167 18.3333 5V15C18.3333 15.4583 18.1701 15.8507 17.8437 16.1771C17.5174 16.5035 17.125 16.6667 16.6667 16.6667H3.33332ZM9.99999 10.8333L16.6667 6.66667V5L9.99999 9.16667L3.33332 5V6.66667L9.99999 10.8333Z" fill="#673DE6"/>
</svg>
